<mxfile host="app.diagrams.net" agent="Mozilla/5.0 (X11; Linux x86_64) AppleWebKit/537.36 (KHTML, like Gecko) Chrome/118.0.0.0 Safari/537.36" version="24.8.0">
  <diagram name="Page-1" id="-H_mtQnk-PTXWXPvYvuk">
    <mxGraphModel dx="-17" dy="623" grid="1" gridSize="10" guides="1" tooltips="1" connect="1" arrows="1" fold="1" page="0" pageScale="1" pageWidth="1169" pageHeight="827" math="0" shadow="0">
      <root>
        <mxCell id="0" />
        <mxCell id="1" parent="0" />
        <mxCell id="iy4ZRNuojDZgYijQHU6E-180" value="" style="group" vertex="1" connectable="0" parent="1">
          <mxGeometry x="1590" y="160" width="730" height="726" as="geometry" />
        </mxCell>
        <mxCell id="iy4ZRNuojDZgYijQHU6E-81" value="" style="group" vertex="1" connectable="0" parent="iy4ZRNuojDZgYijQHU6E-180">
          <mxGeometry y="40" width="730" height="686" as="geometry" />
        </mxCell>
        <mxCell id="iy4ZRNuojDZgYijQHU6E-45" value="" style="rounded=0;whiteSpace=wrap;html=1;" vertex="1" parent="iy4ZRNuojDZgYijQHU6E-81">
          <mxGeometry width="730" height="686" as="geometry" />
        </mxCell>
        <mxCell id="iy4ZRNuojDZgYijQHU6E-76" value="" style="rounded=0;whiteSpace=wrap;html=1;dashed=1;dashPattern=8 8;" vertex="1" parent="iy4ZRNuojDZgYijQHU6E-81">
          <mxGeometry x="350" y="555" width="270" height="110" as="geometry" />
        </mxCell>
        <mxCell id="iy4ZRNuojDZgYijQHU6E-75" value="" style="rounded=0;whiteSpace=wrap;html=1;dashed=1;dashPattern=8 8;" vertex="1" parent="iy4ZRNuojDZgYijQHU6E-81">
          <mxGeometry x="70" y="556" width="270" height="110" as="geometry" />
        </mxCell>
        <mxCell id="iy4ZRNuojDZgYijQHU6E-46" value="pymongo-api" style="rounded=1;whiteSpace=wrap;html=1;fillColor=#0050ef;strokeColor=#001DBC;fontColor=#ffffff;" vertex="1" parent="iy4ZRNuojDZgYijQHU6E-81">
          <mxGeometry x="280" y="90" width="120" height="60" as="geometry" />
        </mxCell>
        <mxCell id="iy4ZRNuojDZgYijQHU6E-47" value="&lt;div style=&quot;text-align: start;&quot;&gt;&lt;font face=&quot;Menlo, Ubuntu Mono, consolas, source-code-pro, monospace&quot;&gt;&lt;span style=&quot;font-size: 14px; white-space: pre; background-color: rgb(255, 255, 255);&quot;&gt;configSrv&lt;/span&gt;&lt;/font&gt;&lt;/div&gt;" style="rounded=0;whiteSpace=wrap;html=1;fillColor=#e1d5e7;strokeColor=#9673a6;" vertex="1" parent="iy4ZRNuojDZgYijQHU6E-81">
          <mxGeometry x="600" y="204" width="90" height="40" as="geometry" />
        </mxCell>
        <mxCell id="iy4ZRNuojDZgYijQHU6E-48" value="router" style="rounded=0;whiteSpace=wrap;html=1;fillColor=#dae8fc;strokeColor=#6c8ebf;" vertex="1" parent="iy4ZRNuojDZgYijQHU6E-81">
          <mxGeometry x="290" y="270" width="100" height="40" as="geometry" />
        </mxCell>
        <mxCell id="iy4ZRNuojDZgYijQHU6E-49" value="shard1" style="shape=cylinder3;whiteSpace=wrap;html=1;boundedLbl=1;backgroundOutline=1;size=15;" vertex="1" parent="iy4ZRNuojDZgYijQHU6E-81">
          <mxGeometry x="170" y="380" width="70" height="80" as="geometry" />
        </mxCell>
        <mxCell id="iy4ZRNuojDZgYijQHU6E-50" value="shard2" style="shape=cylinder3;whiteSpace=wrap;html=1;boundedLbl=1;backgroundOutline=1;size=15;" vertex="1" parent="iy4ZRNuojDZgYijQHU6E-81">
          <mxGeometry x="430" y="380" width="70" height="80" as="geometry" />
        </mxCell>
        <mxCell id="iy4ZRNuojDZgYijQHU6E-51" value="" style="endArrow=classic;html=1;rounded=0;exitX=0.5;exitY=1;exitDx=0;exitDy=0;entryX=0.5;entryY=0;entryDx=0;entryDy=0;" edge="1" source="iy4ZRNuojDZgYijQHU6E-46" target="iy4ZRNuojDZgYijQHU6E-48" parent="iy4ZRNuojDZgYijQHU6E-81">
          <mxGeometry width="50" height="50" relative="1" as="geometry">
            <mxPoint x="490" y="420" as="sourcePoint" />
            <mxPoint x="340" y="150" as="targetPoint" />
          </mxGeometry>
        </mxCell>
        <mxCell id="iy4ZRNuojDZgYijQHU6E-52" value="" style="endArrow=classic;html=1;rounded=0;entryX=0.5;entryY=1;entryDx=0;entryDy=0;startArrow=classic;startFill=1;" edge="1" target="iy4ZRNuojDZgYijQHU6E-47" parent="iy4ZRNuojDZgYijQHU6E-81">
          <mxGeometry width="50" height="50" relative="1" as="geometry">
            <mxPoint x="390" y="290" as="sourcePoint" />
            <mxPoint x="540" y="370" as="targetPoint" />
            <Array as="points">
              <mxPoint x="645" y="290" />
            </Array>
          </mxGeometry>
        </mxCell>
        <mxCell id="iy4ZRNuojDZgYijQHU6E-53" value="" style="endArrow=classic;html=1;rounded=0;exitX=0.5;exitY=1;exitDx=0;exitDy=0;entryX=0.5;entryY=0;entryDx=0;entryDy=0;entryPerimeter=0;startArrow=classic;startFill=1;" edge="1" source="iy4ZRNuojDZgYijQHU6E-48" target="iy4ZRNuojDZgYijQHU6E-50" parent="iy4ZRNuojDZgYijQHU6E-81">
          <mxGeometry width="50" height="50" relative="1" as="geometry">
            <mxPoint x="490" y="420" as="sourcePoint" />
            <mxPoint x="540" y="370" as="targetPoint" />
          </mxGeometry>
        </mxCell>
        <mxCell id="iy4ZRNuojDZgYijQHU6E-54" value="" style="endArrow=classic;html=1;rounded=0;exitX=0.5;exitY=1;exitDx=0;exitDy=0;entryX=0.5;entryY=0;entryDx=0;entryDy=0;entryPerimeter=0;startArrow=classic;startFill=1;" edge="1" source="iy4ZRNuojDZgYijQHU6E-48" target="iy4ZRNuojDZgYijQHU6E-49" parent="iy4ZRNuojDZgYijQHU6E-81">
          <mxGeometry width="50" height="50" relative="1" as="geometry">
            <mxPoint x="180" y="360" as="sourcePoint" />
            <mxPoint x="230" y="310" as="targetPoint" />
          </mxGeometry>
        </mxCell>
        <mxCell id="iy4ZRNuojDZgYijQHU6E-55" value="" style="endArrow=classic;startArrow=classic;html=1;rounded=0;exitX=0.807;exitY=1;exitDx=0;exitDy=0;exitPerimeter=0;entryX=0.5;entryY=1;entryDx=0;entryDy=0;entryPerimeter=0;" edge="1" source="iy4ZRNuojDZgYijQHU6E-47" target="iy4ZRNuojDZgYijQHU6E-50" parent="iy4ZRNuojDZgYijQHU6E-81">
          <mxGeometry width="50" height="50" relative="1" as="geometry">
            <mxPoint x="180" y="360" as="sourcePoint" />
            <mxPoint x="230" y="310" as="targetPoint" />
            <Array as="points">
              <mxPoint x="673" y="510" />
              <mxPoint x="465" y="510" />
            </Array>
          </mxGeometry>
        </mxCell>
        <mxCell id="iy4ZRNuojDZgYijQHU6E-56" value="" style="endArrow=classic;html=1;rounded=0;entryX=0.5;entryY=1;entryDx=0;entryDy=0;entryPerimeter=0;" edge="1" target="iy4ZRNuojDZgYijQHU6E-49" parent="iy4ZRNuojDZgYijQHU6E-81">
          <mxGeometry width="50" height="50" relative="1" as="geometry">
            <mxPoint x="470" y="510" as="sourcePoint" />
            <mxPoint x="210" y="460" as="targetPoint" />
            <Array as="points">
              <mxPoint x="205" y="510" />
            </Array>
          </mxGeometry>
        </mxCell>
        <mxCell id="iy4ZRNuojDZgYijQHU6E-57" value="&lt;font style=&quot;font-size: 10px;&quot;&gt;mongodb1&lt;/font&gt;" style="shape=cylinder3;whiteSpace=wrap;html=1;boundedLbl=1;backgroundOutline=1;size=15;" vertex="1" parent="iy4ZRNuojDZgYijQHU6E-81">
          <mxGeometry x="90" y="570" width="60" height="80" as="geometry" />
        </mxCell>
        <mxCell id="iy4ZRNuojDZgYijQHU6E-58" value="&lt;font style=&quot;font-size: 10px;&quot;&gt;mongodb2&lt;/font&gt;" style="shape=cylinder3;whiteSpace=wrap;html=1;boundedLbl=1;backgroundOutline=1;size=15;" vertex="1" parent="iy4ZRNuojDZgYijQHU6E-81">
          <mxGeometry x="175" y="570" width="60" height="80" as="geometry" />
        </mxCell>
        <mxCell id="iy4ZRNuojDZgYijQHU6E-59" value="&lt;font style=&quot;font-size: 10px;&quot;&gt;mongodb3&lt;/font&gt;" style="shape=cylinder3;whiteSpace=wrap;html=1;boundedLbl=1;backgroundOutline=1;size=15;" vertex="1" parent="iy4ZRNuojDZgYijQHU6E-81">
          <mxGeometry x="261" y="571" width="60" height="80" as="geometry" />
        </mxCell>
        <mxCell id="iy4ZRNuojDZgYijQHU6E-60" value="&lt;font style=&quot;font-size: 10px;&quot;&gt;mongodb4&lt;/font&gt;" style="shape=cylinder3;whiteSpace=wrap;html=1;boundedLbl=1;backgroundOutline=1;size=15;" vertex="1" parent="iy4ZRNuojDZgYijQHU6E-81">
          <mxGeometry x="360" y="570" width="60" height="80" as="geometry" />
        </mxCell>
        <mxCell id="iy4ZRNuojDZgYijQHU6E-61" value="&lt;font style=&quot;font-size: 10px;&quot;&gt;mongodb5&lt;/font&gt;" style="shape=cylinder3;whiteSpace=wrap;html=1;boundedLbl=1;backgroundOutline=1;size=15;" vertex="1" parent="iy4ZRNuojDZgYijQHU6E-81">
          <mxGeometry x="440" y="570" width="60" height="80" as="geometry" />
        </mxCell>
        <mxCell id="iy4ZRNuojDZgYijQHU6E-62" value="&lt;font style=&quot;font-size: 10px;&quot;&gt;mongodb6&lt;/font&gt;" style="shape=cylinder3;whiteSpace=wrap;html=1;boundedLbl=1;backgroundOutline=1;size=15;" vertex="1" parent="iy4ZRNuojDZgYijQHU6E-81">
          <mxGeometry x="520" y="570" width="60" height="80" as="geometry" />
        </mxCell>
        <mxCell id="iy4ZRNuojDZgYijQHU6E-63" value="" style="endArrow=classic;startArrow=classic;html=1;rounded=0;entryX=0.24;entryY=0.98;entryDx=0;entryDy=0;entryPerimeter=0;dashed=1;" edge="1" target="iy4ZRNuojDZgYijQHU6E-49" parent="iy4ZRNuojDZgYijQHU6E-81">
          <mxGeometry width="50" height="50" relative="1" as="geometry">
            <mxPoint x="120" y="570" as="sourcePoint" />
            <mxPoint x="170" y="520" as="targetPoint" />
          </mxGeometry>
        </mxCell>
        <mxCell id="iy4ZRNuojDZgYijQHU6E-64" value="" style="endArrow=classic;startArrow=classic;html=1;rounded=0;entryX=0.743;entryY=1;entryDx=0;entryDy=0;entryPerimeter=0;exitX=0.5;exitY=0;exitDx=0;exitDy=0;exitPerimeter=0;dashed=1;" edge="1" source="iy4ZRNuojDZgYijQHU6E-59" target="iy4ZRNuojDZgYijQHU6E-49" parent="iy4ZRNuojDZgYijQHU6E-81">
          <mxGeometry width="50" height="50" relative="1" as="geometry">
            <mxPoint x="320" y="580" as="sourcePoint" />
            <mxPoint x="370" y="530" as="targetPoint" />
          </mxGeometry>
        </mxCell>
        <mxCell id="iy4ZRNuojDZgYijQHU6E-65" value="" style="endArrow=classic;startArrow=classic;html=1;rounded=0;exitX=0.5;exitY=0;exitDx=0;exitDy=0;exitPerimeter=0;entryX=0.5;entryY=1;entryDx=0;entryDy=0;entryPerimeter=0;dashed=1;" edge="1" source="iy4ZRNuojDZgYijQHU6E-58" target="iy4ZRNuojDZgYijQHU6E-49" parent="iy4ZRNuojDZgYijQHU6E-81">
          <mxGeometry width="50" height="50" relative="1" as="geometry">
            <mxPoint x="320" y="470" as="sourcePoint" />
            <mxPoint x="370" y="420" as="targetPoint" />
          </mxGeometry>
        </mxCell>
        <mxCell id="iy4ZRNuojDZgYijQHU6E-66" value="" style="endArrow=classic;startArrow=classic;html=1;rounded=0;entryX=0.24;entryY=0.98;entryDx=0;entryDy=0;entryPerimeter=0;dashed=1;" edge="1" parent="iy4ZRNuojDZgYijQHU6E-81">
          <mxGeometry width="50" height="50" relative="1" as="geometry">
            <mxPoint x="390" y="570" as="sourcePoint" />
            <mxPoint x="457" y="458" as="targetPoint" />
          </mxGeometry>
        </mxCell>
        <mxCell id="iy4ZRNuojDZgYijQHU6E-67" value="" style="endArrow=classic;startArrow=classic;html=1;rounded=0;entryX=0.743;entryY=1;entryDx=0;entryDy=0;entryPerimeter=0;exitX=0.5;exitY=0;exitDx=0;exitDy=0;exitPerimeter=0;dashed=1;" edge="1" parent="iy4ZRNuojDZgYijQHU6E-81">
          <mxGeometry width="50" height="50" relative="1" as="geometry">
            <mxPoint x="548.9899999999998" y="570" as="sourcePoint" />
            <mxPoint x="479.9899999999998" y="459" as="targetPoint" />
          </mxGeometry>
        </mxCell>
        <mxCell id="iy4ZRNuojDZgYijQHU6E-68" value="" style="endArrow=classic;startArrow=classic;html=1;rounded=0;exitX=0.5;exitY=0;exitDx=0;exitDy=0;exitPerimeter=0;entryX=0.5;entryY=1;entryDx=0;entryDy=0;entryPerimeter=0;dashed=1;" edge="1" parent="iy4ZRNuojDZgYijQHU6E-81">
          <mxGeometry width="50" height="50" relative="1" as="geometry">
            <mxPoint x="464.5999999999999" y="570" as="sourcePoint" />
            <mxPoint x="464.5999999999999" y="460" as="targetPoint" />
          </mxGeometry>
        </mxCell>
        <mxCell id="iy4ZRNuojDZgYijQHU6E-69" value="redis_cache" style="rhombus;whiteSpace=wrap;html=1;" vertex="1" parent="iy4ZRNuojDZgYijQHU6E-81">
          <mxGeometry x="160" y="170" width="80" height="80" as="geometry" />
        </mxCell>
        <mxCell id="iy4ZRNuojDZgYijQHU6E-79" value="" style="endArrow=classic;html=1;rounded=0;exitX=0.5;exitY=1;exitDx=0;exitDy=0;entryX=0;entryY=0.5;entryDx=0;entryDy=0;startArrow=classic;startFill=1;" edge="1" parent="iy4ZRNuojDZgYijQHU6E-81" source="iy4ZRNuojDZgYijQHU6E-69" target="iy4ZRNuojDZgYijQHU6E-48">
          <mxGeometry width="50" height="50" relative="1" as="geometry">
            <mxPoint x="339.6199999999999" y="240" as="sourcePoint" />
            <mxPoint x="339.6199999999999" y="270" as="targetPoint" />
            <Array as="points">
              <mxPoint x="200" y="290" />
            </Array>
          </mxGeometry>
        </mxCell>
        <mxCell id="iy4ZRNuojDZgYijQHU6E-80" value="" style="endArrow=classic;html=1;rounded=0;exitX=0;exitY=0.5;exitDx=0;exitDy=0;entryX=0.5;entryY=0;entryDx=0;entryDy=0;startArrow=classic;startFill=1;" edge="1" parent="iy4ZRNuojDZgYijQHU6E-81" source="iy4ZRNuojDZgYijQHU6E-46" target="iy4ZRNuojDZgYijQHU6E-69">
          <mxGeometry width="50" height="50" relative="1" as="geometry">
            <mxPoint x="160" y="80" as="sourcePoint" />
            <mxPoint x="210" y="30" as="targetPoint" />
            <Array as="points">
              <mxPoint x="200" y="120" />
            </Array>
          </mxGeometry>
        </mxCell>
        <mxCell id="iy4ZRNuojDZgYijQHU6E-179" value="Задание 1" style="text;html=1;align=center;verticalAlign=middle;resizable=0;points=[];autosize=1;strokeColor=none;fillColor=none;" vertex="1" parent="iy4ZRNuojDZgYijQHU6E-180">
          <mxGeometry x="325" width="80" height="30" as="geometry" />
        </mxCell>
        <mxCell id="iy4ZRNuojDZgYijQHU6E-183" value="" style="group" vertex="1" connectable="0" parent="1">
          <mxGeometry x="3350" y="160" width="970" height="1026" as="geometry" />
        </mxCell>
        <mxCell id="iy4ZRNuojDZgYijQHU6E-134" value="" style="rounded=0;whiteSpace=wrap;html=1;movable=1;resizable=1;rotatable=1;deletable=1;editable=1;locked=0;connectable=1;" vertex="1" parent="iy4ZRNuojDZgYijQHU6E-183">
          <mxGeometry y="40" width="970" height="986" as="geometry" />
        </mxCell>
        <mxCell id="iy4ZRNuojDZgYijQHU6E-135" value="" style="rounded=0;whiteSpace=wrap;html=1;dashed=1;dashPattern=8 8;" vertex="1" parent="iy4ZRNuojDZgYijQHU6E-183">
          <mxGeometry x="375" y="825" width="270" height="110" as="geometry" />
        </mxCell>
        <mxCell id="iy4ZRNuojDZgYijQHU6E-136" value="" style="rounded=0;whiteSpace=wrap;html=1;dashed=1;dashPattern=8 8;" vertex="1" parent="iy4ZRNuojDZgYijQHU6E-183">
          <mxGeometry x="95" y="826" width="270" height="110" as="geometry" />
        </mxCell>
        <mxCell id="iy4ZRNuojDZgYijQHU6E-137" value="pymongo-api" style="rounded=1;whiteSpace=wrap;html=1;fillColor=#0050ef;strokeColor=#001DBC;fontColor=#ffffff;" vertex="1" parent="iy4ZRNuojDZgYijQHU6E-183">
          <mxGeometry x="195" y="350" width="120" height="60" as="geometry" />
        </mxCell>
        <mxCell id="iy4ZRNuojDZgYijQHU6E-138" value="&lt;div style=&quot;text-align: start;&quot;&gt;&lt;font face=&quot;Menlo, Ubuntu Mono, consolas, source-code-pro, monospace&quot;&gt;&lt;span style=&quot;font-size: 14px; white-space: pre; background-color: rgb(255, 255, 255);&quot;&gt;configSrv&lt;/span&gt;&lt;/font&gt;&lt;/div&gt;" style="rounded=0;whiteSpace=wrap;html=1;fillColor=#e1d5e7;strokeColor=#9673a6;" vertex="1" parent="iy4ZRNuojDZgYijQHU6E-183">
          <mxGeometry x="625" y="474" width="90" height="40" as="geometry" />
        </mxCell>
        <mxCell id="iy4ZRNuojDZgYijQHU6E-139" value="router" style="rounded=0;whiteSpace=wrap;html=1;fillColor=#dae8fc;strokeColor=#6c8ebf;" vertex="1" parent="iy4ZRNuojDZgYijQHU6E-183">
          <mxGeometry x="315" y="540" width="100" height="40" as="geometry" />
        </mxCell>
        <mxCell id="iy4ZRNuojDZgYijQHU6E-140" value="shard1" style="shape=cylinder3;whiteSpace=wrap;html=1;boundedLbl=1;backgroundOutline=1;size=15;" vertex="1" parent="iy4ZRNuojDZgYijQHU6E-183">
          <mxGeometry x="195" y="650" width="70" height="80" as="geometry" />
        </mxCell>
        <mxCell id="iy4ZRNuojDZgYijQHU6E-141" value="shard2" style="shape=cylinder3;whiteSpace=wrap;html=1;boundedLbl=1;backgroundOutline=1;size=15;" vertex="1" parent="iy4ZRNuojDZgYijQHU6E-183">
          <mxGeometry x="455" y="650" width="70" height="80" as="geometry" />
        </mxCell>
        <mxCell id="iy4ZRNuojDZgYijQHU6E-142" value="" style="endArrow=classic;html=1;rounded=0;entryX=0.5;entryY=1;entryDx=0;entryDy=0;startArrow=classic;startFill=1;" edge="1" parent="iy4ZRNuojDZgYijQHU6E-183" target="iy4ZRNuojDZgYijQHU6E-138">
          <mxGeometry width="50" height="50" relative="1" as="geometry">
            <mxPoint x="415" y="560" as="sourcePoint" />
            <mxPoint x="565" y="640" as="targetPoint" />
            <Array as="points">
              <mxPoint x="670" y="560" />
            </Array>
          </mxGeometry>
        </mxCell>
        <mxCell id="iy4ZRNuojDZgYijQHU6E-143" value="" style="endArrow=classic;html=1;rounded=0;exitX=0.5;exitY=1;exitDx=0;exitDy=0;entryX=0.5;entryY=0;entryDx=0;entryDy=0;entryPerimeter=0;startArrow=classic;startFill=1;" edge="1" parent="iy4ZRNuojDZgYijQHU6E-183" source="iy4ZRNuojDZgYijQHU6E-139" target="iy4ZRNuojDZgYijQHU6E-141">
          <mxGeometry width="50" height="50" relative="1" as="geometry">
            <mxPoint x="515" y="690" as="sourcePoint" />
            <mxPoint x="565" y="640" as="targetPoint" />
          </mxGeometry>
        </mxCell>
        <mxCell id="iy4ZRNuojDZgYijQHU6E-144" value="" style="endArrow=classic;html=1;rounded=0;exitX=0.5;exitY=1;exitDx=0;exitDy=0;entryX=0.5;entryY=0;entryDx=0;entryDy=0;entryPerimeter=0;startArrow=classic;startFill=1;" edge="1" parent="iy4ZRNuojDZgYijQHU6E-183" source="iy4ZRNuojDZgYijQHU6E-139" target="iy4ZRNuojDZgYijQHU6E-140">
          <mxGeometry width="50" height="50" relative="1" as="geometry">
            <mxPoint x="205" y="630" as="sourcePoint" />
            <mxPoint x="255" y="580" as="targetPoint" />
          </mxGeometry>
        </mxCell>
        <mxCell id="iy4ZRNuojDZgYijQHU6E-145" value="" style="endArrow=classic;startArrow=classic;html=1;rounded=0;exitX=0.807;exitY=1;exitDx=0;exitDy=0;exitPerimeter=0;entryX=0.5;entryY=1;entryDx=0;entryDy=0;entryPerimeter=0;" edge="1" parent="iy4ZRNuojDZgYijQHU6E-183" source="iy4ZRNuojDZgYijQHU6E-138" target="iy4ZRNuojDZgYijQHU6E-141">
          <mxGeometry width="50" height="50" relative="1" as="geometry">
            <mxPoint x="205" y="630" as="sourcePoint" />
            <mxPoint x="255" y="580" as="targetPoint" />
            <Array as="points">
              <mxPoint x="698" y="780" />
              <mxPoint x="490" y="780" />
            </Array>
          </mxGeometry>
        </mxCell>
        <mxCell id="iy4ZRNuojDZgYijQHU6E-146" value="" style="endArrow=classic;html=1;rounded=0;entryX=0.5;entryY=1;entryDx=0;entryDy=0;entryPerimeter=0;" edge="1" parent="iy4ZRNuojDZgYijQHU6E-183" target="iy4ZRNuojDZgYijQHU6E-140">
          <mxGeometry width="50" height="50" relative="1" as="geometry">
            <mxPoint x="495" y="780" as="sourcePoint" />
            <mxPoint x="235" y="730" as="targetPoint" />
            <Array as="points">
              <mxPoint x="230" y="780" />
            </Array>
          </mxGeometry>
        </mxCell>
        <mxCell id="iy4ZRNuojDZgYijQHU6E-147" value="&lt;font style=&quot;font-size: 10px;&quot;&gt;mongodb1&lt;/font&gt;" style="shape=cylinder3;whiteSpace=wrap;html=1;boundedLbl=1;backgroundOutline=1;size=15;" vertex="1" parent="iy4ZRNuojDZgYijQHU6E-183">
          <mxGeometry x="115" y="840" width="60" height="80" as="geometry" />
        </mxCell>
        <mxCell id="iy4ZRNuojDZgYijQHU6E-148" value="&lt;font style=&quot;font-size: 10px;&quot;&gt;mongodb2&lt;/font&gt;" style="shape=cylinder3;whiteSpace=wrap;html=1;boundedLbl=1;backgroundOutline=1;size=15;" vertex="1" parent="iy4ZRNuojDZgYijQHU6E-183">
          <mxGeometry x="200" y="840" width="60" height="80" as="geometry" />
        </mxCell>
        <mxCell id="iy4ZRNuojDZgYijQHU6E-149" value="&lt;font style=&quot;font-size: 10px;&quot;&gt;mongodb3&lt;/font&gt;" style="shape=cylinder3;whiteSpace=wrap;html=1;boundedLbl=1;backgroundOutline=1;size=15;" vertex="1" parent="iy4ZRNuojDZgYijQHU6E-183">
          <mxGeometry x="286" y="841" width="60" height="80" as="geometry" />
        </mxCell>
        <mxCell id="iy4ZRNuojDZgYijQHU6E-150" value="&lt;font style=&quot;font-size: 10px;&quot;&gt;mongodb4&lt;/font&gt;" style="shape=cylinder3;whiteSpace=wrap;html=1;boundedLbl=1;backgroundOutline=1;size=15;" vertex="1" parent="iy4ZRNuojDZgYijQHU6E-183">
          <mxGeometry x="385" y="840" width="60" height="80" as="geometry" />
        </mxCell>
        <mxCell id="iy4ZRNuojDZgYijQHU6E-151" value="&lt;font style=&quot;font-size: 10px;&quot;&gt;mongodb5&lt;/font&gt;" style="shape=cylinder3;whiteSpace=wrap;html=1;boundedLbl=1;backgroundOutline=1;size=15;" vertex="1" parent="iy4ZRNuojDZgYijQHU6E-183">
          <mxGeometry x="465" y="840" width="60" height="80" as="geometry" />
        </mxCell>
        <mxCell id="iy4ZRNuojDZgYijQHU6E-152" value="&lt;font style=&quot;font-size: 10px;&quot;&gt;mongodb6&lt;/font&gt;" style="shape=cylinder3;whiteSpace=wrap;html=1;boundedLbl=1;backgroundOutline=1;size=15;" vertex="1" parent="iy4ZRNuojDZgYijQHU6E-183">
          <mxGeometry x="545" y="840" width="60" height="80" as="geometry" />
        </mxCell>
        <mxCell id="iy4ZRNuojDZgYijQHU6E-153" value="" style="endArrow=classic;startArrow=classic;html=1;rounded=0;entryX=0.24;entryY=0.98;entryDx=0;entryDy=0;entryPerimeter=0;dashed=1;" edge="1" parent="iy4ZRNuojDZgYijQHU6E-183" target="iy4ZRNuojDZgYijQHU6E-140">
          <mxGeometry width="50" height="50" relative="1" as="geometry">
            <mxPoint x="145" y="840" as="sourcePoint" />
            <mxPoint x="195" y="790" as="targetPoint" />
          </mxGeometry>
        </mxCell>
        <mxCell id="iy4ZRNuojDZgYijQHU6E-154" value="" style="endArrow=classic;startArrow=classic;html=1;rounded=0;entryX=0.743;entryY=1;entryDx=0;entryDy=0;entryPerimeter=0;exitX=0.5;exitY=0;exitDx=0;exitDy=0;exitPerimeter=0;dashed=1;" edge="1" parent="iy4ZRNuojDZgYijQHU6E-183" source="iy4ZRNuojDZgYijQHU6E-149" target="iy4ZRNuojDZgYijQHU6E-140">
          <mxGeometry width="50" height="50" relative="1" as="geometry">
            <mxPoint x="345" y="850" as="sourcePoint" />
            <mxPoint x="395" y="800" as="targetPoint" />
          </mxGeometry>
        </mxCell>
        <mxCell id="iy4ZRNuojDZgYijQHU6E-155" value="" style="endArrow=classic;startArrow=classic;html=1;rounded=0;exitX=0.5;exitY=0;exitDx=0;exitDy=0;exitPerimeter=0;entryX=0.5;entryY=1;entryDx=0;entryDy=0;entryPerimeter=0;dashed=1;" edge="1" parent="iy4ZRNuojDZgYijQHU6E-183" source="iy4ZRNuojDZgYijQHU6E-148" target="iy4ZRNuojDZgYijQHU6E-140">
          <mxGeometry width="50" height="50" relative="1" as="geometry">
            <mxPoint x="345" y="740" as="sourcePoint" />
            <mxPoint x="395" y="690" as="targetPoint" />
          </mxGeometry>
        </mxCell>
        <mxCell id="iy4ZRNuojDZgYijQHU6E-156" value="" style="endArrow=classic;startArrow=classic;html=1;rounded=0;entryX=0.24;entryY=0.98;entryDx=0;entryDy=0;entryPerimeter=0;dashed=1;" edge="1" parent="iy4ZRNuojDZgYijQHU6E-183">
          <mxGeometry width="50" height="50" relative="1" as="geometry">
            <mxPoint x="415" y="840" as="sourcePoint" />
            <mxPoint x="482" y="728" as="targetPoint" />
          </mxGeometry>
        </mxCell>
        <mxCell id="iy4ZRNuojDZgYijQHU6E-157" value="" style="endArrow=classic;startArrow=classic;html=1;rounded=0;entryX=0.743;entryY=1;entryDx=0;entryDy=0;entryPerimeter=0;exitX=0.5;exitY=0;exitDx=0;exitDy=0;exitPerimeter=0;dashed=1;" edge="1" parent="iy4ZRNuojDZgYijQHU6E-183">
          <mxGeometry width="50" height="50" relative="1" as="geometry">
            <mxPoint x="573.9899999999998" y="840" as="sourcePoint" />
            <mxPoint x="504.9899999999998" y="729" as="targetPoint" />
          </mxGeometry>
        </mxCell>
        <mxCell id="iy4ZRNuojDZgYijQHU6E-158" value="" style="endArrow=classic;startArrow=classic;html=1;rounded=0;exitX=0.5;exitY=0;exitDx=0;exitDy=0;exitPerimeter=0;entryX=0.5;entryY=1;entryDx=0;entryDy=0;entryPerimeter=0;dashed=1;" edge="1" parent="iy4ZRNuojDZgYijQHU6E-183">
          <mxGeometry width="50" height="50" relative="1" as="geometry">
            <mxPoint x="489.5999999999999" y="840" as="sourcePoint" />
            <mxPoint x="489.5999999999999" y="730" as="targetPoint" />
          </mxGeometry>
        </mxCell>
        <mxCell id="iy4ZRNuojDZgYijQHU6E-159" value="redis_cache" style="rhombus;whiteSpace=wrap;html=1;" vertex="1" parent="iy4ZRNuojDZgYijQHU6E-183">
          <mxGeometry x="325" y="440" width="80" height="80" as="geometry" />
        </mxCell>
        <mxCell id="iy4ZRNuojDZgYijQHU6E-160" value="pymongo-api" style="rounded=1;whiteSpace=wrap;html=1;fillColor=#0050ef;strokeColor=#001DBC;fontColor=#ffffff;" vertex="1" parent="iy4ZRNuojDZgYijQHU6E-183">
          <mxGeometry x="415" y="350" width="120" height="60" as="geometry" />
        </mxCell>
        <mxCell id="iy4ZRNuojDZgYijQHU6E-161" value="" style="endArrow=classic;html=1;rounded=0;exitX=0.5;exitY=1;exitDx=0;exitDy=0;entryX=0;entryY=0.5;entryDx=0;entryDy=0;startArrow=classic;startFill=1;" edge="1" parent="iy4ZRNuojDZgYijQHU6E-183" source="iy4ZRNuojDZgYijQHU6E-137" target="iy4ZRNuojDZgYijQHU6E-159">
          <mxGeometry width="50" height="50" relative="1" as="geometry">
            <mxPoint x="445" y="450" as="sourcePoint" />
            <mxPoint x="495" y="400" as="targetPoint" />
            <Array as="points">
              <mxPoint x="255" y="480" />
            </Array>
          </mxGeometry>
        </mxCell>
        <mxCell id="iy4ZRNuojDZgYijQHU6E-162" value="" style="endArrow=classic;html=1;rounded=0;exitX=0.5;exitY=1;exitDx=0;exitDy=0;entryX=1;entryY=0.5;entryDx=0;entryDy=0;startArrow=classic;startFill=1;" edge="1" parent="iy4ZRNuojDZgYijQHU6E-183" source="iy4ZRNuojDZgYijQHU6E-160" target="iy4ZRNuojDZgYijQHU6E-159">
          <mxGeometry width="50" height="50" relative="1" as="geometry">
            <mxPoint x="325" y="394" as="sourcePoint" />
            <mxPoint x="375" y="450" as="targetPoint" />
            <Array as="points">
              <mxPoint x="475" y="480" />
            </Array>
          </mxGeometry>
        </mxCell>
        <mxCell id="iy4ZRNuojDZgYijQHU6E-163" value="" style="endArrow=classic;html=1;rounded=0;exitX=0.5;exitY=1;exitDx=0;exitDy=0;entryX=0.5;entryY=0;entryDx=0;entryDy=0;startArrow=classic;startFill=1;" edge="1" parent="iy4ZRNuojDZgYijQHU6E-183" source="iy4ZRNuojDZgYijQHU6E-159" target="iy4ZRNuojDZgYijQHU6E-139">
          <mxGeometry width="50" height="50" relative="1" as="geometry">
            <mxPoint x="445" y="450" as="sourcePoint" />
            <mxPoint x="495" y="400" as="targetPoint" />
          </mxGeometry>
        </mxCell>
        <mxCell id="iy4ZRNuojDZgYijQHU6E-164" value="" style="endArrow=classic;html=1;rounded=0;exitX=0.319;exitY=1.004;exitDx=0;exitDy=0;exitPerimeter=0;entryX=0;entryY=0.25;entryDx=0;entryDy=0;" edge="1" parent="iy4ZRNuojDZgYijQHU6E-183" source="iy4ZRNuojDZgYijQHU6E-137" target="iy4ZRNuojDZgYijQHU6E-139">
          <mxGeometry width="50" height="50" relative="1" as="geometry">
            <mxPoint x="445" y="450" as="sourcePoint" />
            <mxPoint x="495" y="400" as="targetPoint" />
            <Array as="points">
              <mxPoint x="235" y="550" />
            </Array>
          </mxGeometry>
        </mxCell>
        <mxCell id="iy4ZRNuojDZgYijQHU6E-165" value="" style="endArrow=classic;html=1;rounded=0;exitX=0.667;exitY=1;exitDx=0;exitDy=0;exitPerimeter=0;entryX=1;entryY=0.25;entryDx=0;entryDy=0;" edge="1" parent="iy4ZRNuojDZgYijQHU6E-183" source="iy4ZRNuojDZgYijQHU6E-160" target="iy4ZRNuojDZgYijQHU6E-139">
          <mxGeometry width="50" height="50" relative="1" as="geometry">
            <mxPoint x="445" y="420" as="sourcePoint" />
            <mxPoint x="495" y="370" as="targetPoint" />
            <Array as="points">
              <mxPoint x="495" y="550" />
            </Array>
          </mxGeometry>
        </mxCell>
        <mxCell id="iy4ZRNuojDZgYijQHU6E-166" value="APISIX gateway" style="rounded=0;whiteSpace=wrap;html=1;fillColor=#ffe6cc;strokeColor=#d79b00;" vertex="1" parent="iy4ZRNuojDZgYijQHU6E-183">
          <mxGeometry x="305" y="190" width="120" height="60" as="geometry" />
        </mxCell>
        <mxCell id="iy4ZRNuojDZgYijQHU6E-167" value="" style="endArrow=classic;html=1;rounded=0;exitX=0.333;exitY=0.994;exitDx=0;exitDy=0;entryX=1;entryY=0.5;entryDx=0;entryDy=0;exitPerimeter=0;" edge="1" parent="iy4ZRNuojDZgYijQHU6E-183" source="iy4ZRNuojDZgYijQHU6E-166" target="iy4ZRNuojDZgYijQHU6E-137">
          <mxGeometry width="50" height="50" relative="1" as="geometry">
            <mxPoint x="95" y="420" as="sourcePoint" />
            <mxPoint x="145" y="370" as="targetPoint" />
            <Array as="points">
              <mxPoint x="345" y="380" />
            </Array>
          </mxGeometry>
        </mxCell>
        <mxCell id="iy4ZRNuojDZgYijQHU6E-168" value="" style="endArrow=classic;html=1;rounded=0;exitX=0.662;exitY=0.986;exitDx=0;exitDy=0;entryX=0;entryY=0.5;entryDx=0;entryDy=0;exitPerimeter=0;" edge="1" parent="iy4ZRNuojDZgYijQHU6E-183" source="iy4ZRNuojDZgYijQHU6E-166" target="iy4ZRNuojDZgYijQHU6E-160">
          <mxGeometry width="50" height="50" relative="1" as="geometry">
            <mxPoint x="245" y="340" as="sourcePoint" />
            <mxPoint x="295" y="290" as="targetPoint" />
            <Array as="points">
              <mxPoint x="385" y="380" />
            </Array>
          </mxGeometry>
        </mxCell>
        <mxCell id="iy4ZRNuojDZgYijQHU6E-169" value="user" style="shape=umlActor;verticalLabelPosition=bottom;verticalAlign=top;html=1;outlineConnect=0;" vertex="1" parent="iy4ZRNuojDZgYijQHU6E-183">
          <mxGeometry x="350" y="60" width="30" height="60" as="geometry" />
        </mxCell>
        <mxCell id="iy4ZRNuojDZgYijQHU6E-170" value="" style="endArrow=classic;html=1;rounded=0;entryX=0.5;entryY=0;entryDx=0;entryDy=0;" edge="1" parent="iy4ZRNuojDZgYijQHU6E-183" source="iy4ZRNuojDZgYijQHU6E-169" target="iy4ZRNuojDZgYijQHU6E-166">
          <mxGeometry width="50" height="50" relative="1" as="geometry">
            <mxPoint x="245" y="310" as="sourcePoint" />
            <mxPoint x="295" y="260" as="targetPoint" />
          </mxGeometry>
        </mxCell>
        <mxCell id="iy4ZRNuojDZgYijQHU6E-171" value="consul" style="rounded=1;whiteSpace=wrap;html=1;fillColor=#ffe6cc;strokeColor=#d79b00;" vertex="1" parent="iy4ZRNuojDZgYijQHU6E-183">
          <mxGeometry x="565" y="190" width="120" height="60" as="geometry" />
        </mxCell>
        <mxCell id="iy4ZRNuojDZgYijQHU6E-172" value="consul_kv" style="rounded=0;whiteSpace=wrap;html=1;fillColor=#ffe6cc;strokeColor=#d79b00;" vertex="1" parent="iy4ZRNuojDZgYijQHU6E-183">
          <mxGeometry x="415" y="200" width="60" height="40" as="geometry" />
        </mxCell>
        <mxCell id="iy4ZRNuojDZgYijQHU6E-173" value="" style="endArrow=classic;html=1;rounded=0;exitX=1;exitY=0.5;exitDx=0;exitDy=0;entryX=0;entryY=0.5;entryDx=0;entryDy=0;" edge="1" parent="iy4ZRNuojDZgYijQHU6E-183" source="iy4ZRNuojDZgYijQHU6E-172" target="iy4ZRNuojDZgYijQHU6E-171">
          <mxGeometry width="50" height="50" relative="1" as="geometry">
            <mxPoint x="385" y="390" as="sourcePoint" />
            <mxPoint x="435" y="340" as="targetPoint" />
          </mxGeometry>
        </mxCell>
        <mxCell id="iy4ZRNuojDZgYijQHU6E-174" value="" style="endArrow=classic;html=1;rounded=0;entryX=0.5;entryY=1;entryDx=0;entryDy=0;dashed=1;" edge="1" parent="iy4ZRNuojDZgYijQHU6E-183" target="iy4ZRNuojDZgYijQHU6E-171">
          <mxGeometry width="50" height="50" relative="1" as="geometry">
            <mxPoint x="255" y="350" as="sourcePoint" />
            <mxPoint x="305" y="300" as="targetPoint" />
            <Array as="points">
              <mxPoint x="255" y="320" />
              <mxPoint x="625" y="320" />
            </Array>
          </mxGeometry>
        </mxCell>
        <mxCell id="iy4ZRNuojDZgYijQHU6E-175" value="" style="endArrow=classic;html=1;rounded=0;exitX=0.5;exitY=0;exitDx=0;exitDy=0;entryX=0.75;entryY=1;entryDx=0;entryDy=0;dashed=1;" edge="1" parent="iy4ZRNuojDZgYijQHU6E-183" source="iy4ZRNuojDZgYijQHU6E-160" target="iy4ZRNuojDZgYijQHU6E-171">
          <mxGeometry width="50" height="50" relative="1" as="geometry">
            <mxPoint x="385" y="390" as="sourcePoint" />
            <mxPoint x="435" y="340" as="targetPoint" />
            <Array as="points">
              <mxPoint x="475" y="330" />
              <mxPoint x="655" y="330" />
            </Array>
          </mxGeometry>
        </mxCell>
        <mxCell id="iy4ZRNuojDZgYijQHU6E-176" value="CDN" style="ellipse;shape=cloud;whiteSpace=wrap;html=1;fillColor=#d5e8d4;strokeColor=#82b366;" vertex="1" parent="iy4ZRNuojDZgYijQHU6E-183">
          <mxGeometry x="800" y="330" width="120" height="80" as="geometry" />
        </mxCell>
        <mxCell id="iy4ZRNuojDZgYijQHU6E-177" value="" style="endArrow=classic;html=1;rounded=0;entryX=0.31;entryY=0.8;entryDx=0;entryDy=0;entryPerimeter=0;exitX=0.819;exitY=1.02;exitDx=0;exitDy=0;exitPerimeter=0;dashed=1;dashPattern=1 2;" edge="1" parent="iy4ZRNuojDZgYijQHU6E-183" source="iy4ZRNuojDZgYijQHU6E-160" target="iy4ZRNuojDZgYijQHU6E-176">
          <mxGeometry width="50" height="50" relative="1" as="geometry">
            <mxPoint x="365" y="90" as="sourcePoint" />
            <mxPoint x="120" y="420" as="targetPoint" />
            <Array as="points">
              <mxPoint x="513" y="420" />
              <mxPoint x="837" y="420" />
            </Array>
          </mxGeometry>
        </mxCell>
        <mxCell id="iy4ZRNuojDZgYijQHU6E-178" value="" style="endArrow=classic;html=1;rounded=0;exitX=0.75;exitY=1;exitDx=0;exitDy=0;entryX=0.55;entryY=0.95;entryDx=0;entryDy=0;entryPerimeter=0;dashed=1;dashPattern=1 2;" edge="1" parent="iy4ZRNuojDZgYijQHU6E-183" source="iy4ZRNuojDZgYijQHU6E-137" target="iy4ZRNuojDZgYijQHU6E-176">
          <mxGeometry width="50" height="50" relative="1" as="geometry">
            <mxPoint x="510" y="290" as="sourcePoint" />
            <mxPoint x="560" y="240" as="targetPoint" />
            <Array as="points">
              <mxPoint x="285" y="430" />
              <mxPoint x="866" y="430" />
            </Array>
          </mxGeometry>
        </mxCell>
        <mxCell id="iy4ZRNuojDZgYijQHU6E-181" value="Задание 6" style="text;html=1;align=center;verticalAlign=middle;resizable=0;points=[];autosize=1;strokeColor=none;fillColor=none;" vertex="1" parent="iy4ZRNuojDZgYijQHU6E-183">
          <mxGeometry x="470" width="80" height="30" as="geometry" />
        </mxCell>
        <mxCell id="iy4ZRNuojDZgYijQHU6E-184" value="" style="group" vertex="1" connectable="0" parent="1">
          <mxGeometry x="2440" y="150" width="795" height="1036" as="geometry" />
        </mxCell>
        <mxCell id="iy4ZRNuojDZgYijQHU6E-132" value="" style="group" vertex="1" connectable="0" parent="iy4ZRNuojDZgYijQHU6E-184">
          <mxGeometry y="50" width="795" height="986" as="geometry" />
        </mxCell>
        <mxCell id="iy4ZRNuojDZgYijQHU6E-83" value="" style="rounded=0;whiteSpace=wrap;html=1;" vertex="1" parent="iy4ZRNuojDZgYijQHU6E-132">
          <mxGeometry width="795" height="986" as="geometry" />
        </mxCell>
        <mxCell id="iy4ZRNuojDZgYijQHU6E-84" value="" style="rounded=0;whiteSpace=wrap;html=1;dashed=1;dashPattern=8 8;" vertex="1" parent="iy4ZRNuojDZgYijQHU6E-132">
          <mxGeometry x="375" y="785" width="270" height="110" as="geometry" />
        </mxCell>
        <mxCell id="iy4ZRNuojDZgYijQHU6E-85" value="" style="rounded=0;whiteSpace=wrap;html=1;dashed=1;dashPattern=8 8;" vertex="1" parent="iy4ZRNuojDZgYijQHU6E-132">
          <mxGeometry x="95" y="786" width="270" height="110" as="geometry" />
        </mxCell>
        <mxCell id="iy4ZRNuojDZgYijQHU6E-86" value="pymongo-api" style="rounded=1;whiteSpace=wrap;html=1;fillColor=#0050ef;strokeColor=#001DBC;fontColor=#ffffff;" vertex="1" parent="iy4ZRNuojDZgYijQHU6E-132">
          <mxGeometry x="195" y="310" width="120" height="60" as="geometry" />
        </mxCell>
        <mxCell id="iy4ZRNuojDZgYijQHU6E-87" value="&lt;div style=&quot;text-align: start;&quot;&gt;&lt;font face=&quot;Menlo, Ubuntu Mono, consolas, source-code-pro, monospace&quot;&gt;&lt;span style=&quot;font-size: 14px; white-space: pre; background-color: rgb(255, 255, 255);&quot;&gt;configSrv&lt;/span&gt;&lt;/font&gt;&lt;/div&gt;" style="rounded=0;whiteSpace=wrap;html=1;fillColor=#e1d5e7;strokeColor=#9673a6;" vertex="1" parent="iy4ZRNuojDZgYijQHU6E-132">
          <mxGeometry x="625" y="434" width="90" height="40" as="geometry" />
        </mxCell>
        <mxCell id="iy4ZRNuojDZgYijQHU6E-88" value="router" style="rounded=0;whiteSpace=wrap;html=1;fillColor=#dae8fc;strokeColor=#6c8ebf;" vertex="1" parent="iy4ZRNuojDZgYijQHU6E-132">
          <mxGeometry x="315" y="500" width="100" height="40" as="geometry" />
        </mxCell>
        <mxCell id="iy4ZRNuojDZgYijQHU6E-89" value="shard1" style="shape=cylinder3;whiteSpace=wrap;html=1;boundedLbl=1;backgroundOutline=1;size=15;" vertex="1" parent="iy4ZRNuojDZgYijQHU6E-132">
          <mxGeometry x="195" y="610" width="70" height="80" as="geometry" />
        </mxCell>
        <mxCell id="iy4ZRNuojDZgYijQHU6E-90" value="shard2" style="shape=cylinder3;whiteSpace=wrap;html=1;boundedLbl=1;backgroundOutline=1;size=15;" vertex="1" parent="iy4ZRNuojDZgYijQHU6E-132">
          <mxGeometry x="455" y="610" width="70" height="80" as="geometry" />
        </mxCell>
        <mxCell id="iy4ZRNuojDZgYijQHU6E-92" value="" style="endArrow=classic;html=1;rounded=0;entryX=0.5;entryY=1;entryDx=0;entryDy=0;startArrow=classic;startFill=1;" edge="1" parent="iy4ZRNuojDZgYijQHU6E-132" target="iy4ZRNuojDZgYijQHU6E-87">
          <mxGeometry width="50" height="50" relative="1" as="geometry">
            <mxPoint x="415" y="520" as="sourcePoint" />
            <mxPoint x="565" y="600" as="targetPoint" />
            <Array as="points">
              <mxPoint x="670" y="520" />
            </Array>
          </mxGeometry>
        </mxCell>
        <mxCell id="iy4ZRNuojDZgYijQHU6E-93" value="" style="endArrow=classic;html=1;rounded=0;exitX=0.5;exitY=1;exitDx=0;exitDy=0;entryX=0.5;entryY=0;entryDx=0;entryDy=0;entryPerimeter=0;startArrow=classic;startFill=1;" edge="1" parent="iy4ZRNuojDZgYijQHU6E-132" source="iy4ZRNuojDZgYijQHU6E-88" target="iy4ZRNuojDZgYijQHU6E-90">
          <mxGeometry width="50" height="50" relative="1" as="geometry">
            <mxPoint x="515" y="650" as="sourcePoint" />
            <mxPoint x="565" y="600" as="targetPoint" />
          </mxGeometry>
        </mxCell>
        <mxCell id="iy4ZRNuojDZgYijQHU6E-94" value="" style="endArrow=classic;html=1;rounded=0;exitX=0.5;exitY=1;exitDx=0;exitDy=0;entryX=0.5;entryY=0;entryDx=0;entryDy=0;entryPerimeter=0;startArrow=classic;startFill=1;" edge="1" parent="iy4ZRNuojDZgYijQHU6E-132" source="iy4ZRNuojDZgYijQHU6E-88" target="iy4ZRNuojDZgYijQHU6E-89">
          <mxGeometry width="50" height="50" relative="1" as="geometry">
            <mxPoint x="205" y="590" as="sourcePoint" />
            <mxPoint x="255" y="540" as="targetPoint" />
          </mxGeometry>
        </mxCell>
        <mxCell id="iy4ZRNuojDZgYijQHU6E-95" value="" style="endArrow=classic;startArrow=classic;html=1;rounded=0;exitX=0.807;exitY=1;exitDx=0;exitDy=0;exitPerimeter=0;entryX=0.5;entryY=1;entryDx=0;entryDy=0;entryPerimeter=0;" edge="1" parent="iy4ZRNuojDZgYijQHU6E-132" source="iy4ZRNuojDZgYijQHU6E-87" target="iy4ZRNuojDZgYijQHU6E-90">
          <mxGeometry width="50" height="50" relative="1" as="geometry">
            <mxPoint x="205" y="590" as="sourcePoint" />
            <mxPoint x="255" y="540" as="targetPoint" />
            <Array as="points">
              <mxPoint x="698" y="740" />
              <mxPoint x="490" y="740" />
            </Array>
          </mxGeometry>
        </mxCell>
        <mxCell id="iy4ZRNuojDZgYijQHU6E-96" value="" style="endArrow=classic;html=1;rounded=0;entryX=0.5;entryY=1;entryDx=0;entryDy=0;entryPerimeter=0;" edge="1" parent="iy4ZRNuojDZgYijQHU6E-132" target="iy4ZRNuojDZgYijQHU6E-89">
          <mxGeometry width="50" height="50" relative="1" as="geometry">
            <mxPoint x="495" y="740" as="sourcePoint" />
            <mxPoint x="235" y="690" as="targetPoint" />
            <Array as="points">
              <mxPoint x="230" y="740" />
            </Array>
          </mxGeometry>
        </mxCell>
        <mxCell id="iy4ZRNuojDZgYijQHU6E-97" value="&lt;font style=&quot;font-size: 10px;&quot;&gt;mongodb1&lt;/font&gt;" style="shape=cylinder3;whiteSpace=wrap;html=1;boundedLbl=1;backgroundOutline=1;size=15;" vertex="1" parent="iy4ZRNuojDZgYijQHU6E-132">
          <mxGeometry x="115" y="800" width="60" height="80" as="geometry" />
        </mxCell>
        <mxCell id="iy4ZRNuojDZgYijQHU6E-98" value="&lt;font style=&quot;font-size: 10px;&quot;&gt;mongodb2&lt;/font&gt;" style="shape=cylinder3;whiteSpace=wrap;html=1;boundedLbl=1;backgroundOutline=1;size=15;" vertex="1" parent="iy4ZRNuojDZgYijQHU6E-132">
          <mxGeometry x="200" y="800" width="60" height="80" as="geometry" />
        </mxCell>
        <mxCell id="iy4ZRNuojDZgYijQHU6E-99" value="&lt;font style=&quot;font-size: 10px;&quot;&gt;mongodb3&lt;/font&gt;" style="shape=cylinder3;whiteSpace=wrap;html=1;boundedLbl=1;backgroundOutline=1;size=15;" vertex="1" parent="iy4ZRNuojDZgYijQHU6E-132">
          <mxGeometry x="286" y="801" width="60" height="80" as="geometry" />
        </mxCell>
        <mxCell id="iy4ZRNuojDZgYijQHU6E-100" value="&lt;font style=&quot;font-size: 10px;&quot;&gt;mongodb4&lt;/font&gt;" style="shape=cylinder3;whiteSpace=wrap;html=1;boundedLbl=1;backgroundOutline=1;size=15;" vertex="1" parent="iy4ZRNuojDZgYijQHU6E-132">
          <mxGeometry x="385" y="800" width="60" height="80" as="geometry" />
        </mxCell>
        <mxCell id="iy4ZRNuojDZgYijQHU6E-101" value="&lt;font style=&quot;font-size: 10px;&quot;&gt;mongodb5&lt;/font&gt;" style="shape=cylinder3;whiteSpace=wrap;html=1;boundedLbl=1;backgroundOutline=1;size=15;" vertex="1" parent="iy4ZRNuojDZgYijQHU6E-132">
          <mxGeometry x="465" y="800" width="60" height="80" as="geometry" />
        </mxCell>
        <mxCell id="iy4ZRNuojDZgYijQHU6E-102" value="&lt;font style=&quot;font-size: 10px;&quot;&gt;mongodb6&lt;/font&gt;" style="shape=cylinder3;whiteSpace=wrap;html=1;boundedLbl=1;backgroundOutline=1;size=15;" vertex="1" parent="iy4ZRNuojDZgYijQHU6E-132">
          <mxGeometry x="545" y="800" width="60" height="80" as="geometry" />
        </mxCell>
        <mxCell id="iy4ZRNuojDZgYijQHU6E-103" value="" style="endArrow=classic;startArrow=classic;html=1;rounded=0;entryX=0.24;entryY=0.98;entryDx=0;entryDy=0;entryPerimeter=0;dashed=1;" edge="1" parent="iy4ZRNuojDZgYijQHU6E-132" target="iy4ZRNuojDZgYijQHU6E-89">
          <mxGeometry width="50" height="50" relative="1" as="geometry">
            <mxPoint x="145" y="800" as="sourcePoint" />
            <mxPoint x="195" y="750" as="targetPoint" />
          </mxGeometry>
        </mxCell>
        <mxCell id="iy4ZRNuojDZgYijQHU6E-104" value="" style="endArrow=classic;startArrow=classic;html=1;rounded=0;entryX=0.743;entryY=1;entryDx=0;entryDy=0;entryPerimeter=0;exitX=0.5;exitY=0;exitDx=0;exitDy=0;exitPerimeter=0;dashed=1;" edge="1" parent="iy4ZRNuojDZgYijQHU6E-132" source="iy4ZRNuojDZgYijQHU6E-99" target="iy4ZRNuojDZgYijQHU6E-89">
          <mxGeometry width="50" height="50" relative="1" as="geometry">
            <mxPoint x="345" y="810" as="sourcePoint" />
            <mxPoint x="395" y="760" as="targetPoint" />
          </mxGeometry>
        </mxCell>
        <mxCell id="iy4ZRNuojDZgYijQHU6E-105" value="" style="endArrow=classic;startArrow=classic;html=1;rounded=0;exitX=0.5;exitY=0;exitDx=0;exitDy=0;exitPerimeter=0;entryX=0.5;entryY=1;entryDx=0;entryDy=0;entryPerimeter=0;dashed=1;" edge="1" parent="iy4ZRNuojDZgYijQHU6E-132" source="iy4ZRNuojDZgYijQHU6E-98" target="iy4ZRNuojDZgYijQHU6E-89">
          <mxGeometry width="50" height="50" relative="1" as="geometry">
            <mxPoint x="345" y="700" as="sourcePoint" />
            <mxPoint x="395" y="650" as="targetPoint" />
          </mxGeometry>
        </mxCell>
        <mxCell id="iy4ZRNuojDZgYijQHU6E-106" value="" style="endArrow=classic;startArrow=classic;html=1;rounded=0;entryX=0.24;entryY=0.98;entryDx=0;entryDy=0;entryPerimeter=0;dashed=1;" edge="1" parent="iy4ZRNuojDZgYijQHU6E-132">
          <mxGeometry width="50" height="50" relative="1" as="geometry">
            <mxPoint x="415" y="800" as="sourcePoint" />
            <mxPoint x="482" y="688" as="targetPoint" />
          </mxGeometry>
        </mxCell>
        <mxCell id="iy4ZRNuojDZgYijQHU6E-107" value="" style="endArrow=classic;startArrow=classic;html=1;rounded=0;entryX=0.743;entryY=1;entryDx=0;entryDy=0;entryPerimeter=0;exitX=0.5;exitY=0;exitDx=0;exitDy=0;exitPerimeter=0;dashed=1;" edge="1" parent="iy4ZRNuojDZgYijQHU6E-132">
          <mxGeometry width="50" height="50" relative="1" as="geometry">
            <mxPoint x="573.9899999999998" y="800" as="sourcePoint" />
            <mxPoint x="504.9899999999998" y="689" as="targetPoint" />
          </mxGeometry>
        </mxCell>
        <mxCell id="iy4ZRNuojDZgYijQHU6E-108" value="" style="endArrow=classic;startArrow=classic;html=1;rounded=0;exitX=0.5;exitY=0;exitDx=0;exitDy=0;exitPerimeter=0;entryX=0.5;entryY=1;entryDx=0;entryDy=0;entryPerimeter=0;dashed=1;" edge="1" parent="iy4ZRNuojDZgYijQHU6E-132">
          <mxGeometry width="50" height="50" relative="1" as="geometry">
            <mxPoint x="489.5999999999999" y="800" as="sourcePoint" />
            <mxPoint x="489.5999999999999" y="690" as="targetPoint" />
          </mxGeometry>
        </mxCell>
        <mxCell id="iy4ZRNuojDZgYijQHU6E-109" value="redis_cache" style="rhombus;whiteSpace=wrap;html=1;" vertex="1" parent="iy4ZRNuojDZgYijQHU6E-132">
          <mxGeometry x="325" y="400" width="80" height="80" as="geometry" />
        </mxCell>
        <mxCell id="iy4ZRNuojDZgYijQHU6E-112" value="pymongo-api" style="rounded=1;whiteSpace=wrap;html=1;fillColor=#0050ef;strokeColor=#001DBC;fontColor=#ffffff;" vertex="1" parent="iy4ZRNuojDZgYijQHU6E-132">
          <mxGeometry x="415" y="310" width="120" height="60" as="geometry" />
        </mxCell>
        <mxCell id="iy4ZRNuojDZgYijQHU6E-113" value="" style="endArrow=classic;html=1;rounded=0;exitX=0.5;exitY=1;exitDx=0;exitDy=0;entryX=0;entryY=0.5;entryDx=0;entryDy=0;startArrow=classic;startFill=1;" edge="1" parent="iy4ZRNuojDZgYijQHU6E-132" source="iy4ZRNuojDZgYijQHU6E-86" target="iy4ZRNuojDZgYijQHU6E-109">
          <mxGeometry width="50" height="50" relative="1" as="geometry">
            <mxPoint x="445" y="410" as="sourcePoint" />
            <mxPoint x="495" y="360" as="targetPoint" />
            <Array as="points">
              <mxPoint x="255" y="440" />
            </Array>
          </mxGeometry>
        </mxCell>
        <mxCell id="iy4ZRNuojDZgYijQHU6E-114" value="" style="endArrow=classic;html=1;rounded=0;exitX=0.5;exitY=1;exitDx=0;exitDy=0;entryX=1;entryY=0.5;entryDx=0;entryDy=0;startArrow=classic;startFill=1;" edge="1" parent="iy4ZRNuojDZgYijQHU6E-132" source="iy4ZRNuojDZgYijQHU6E-112" target="iy4ZRNuojDZgYijQHU6E-109">
          <mxGeometry width="50" height="50" relative="1" as="geometry">
            <mxPoint x="325" y="354" as="sourcePoint" />
            <mxPoint x="375" y="410" as="targetPoint" />
            <Array as="points">
              <mxPoint x="475" y="440" />
            </Array>
          </mxGeometry>
        </mxCell>
        <mxCell id="iy4ZRNuojDZgYijQHU6E-115" value="" style="endArrow=classic;html=1;rounded=0;exitX=0.5;exitY=1;exitDx=0;exitDy=0;entryX=0.5;entryY=0;entryDx=0;entryDy=0;startArrow=classic;startFill=1;" edge="1" parent="iy4ZRNuojDZgYijQHU6E-132" source="iy4ZRNuojDZgYijQHU6E-109" target="iy4ZRNuojDZgYijQHU6E-88">
          <mxGeometry width="50" height="50" relative="1" as="geometry">
            <mxPoint x="445" y="410" as="sourcePoint" />
            <mxPoint x="495" y="360" as="targetPoint" />
          </mxGeometry>
        </mxCell>
        <mxCell id="iy4ZRNuojDZgYijQHU6E-116" value="" style="endArrow=classic;html=1;rounded=0;exitX=0.319;exitY=1.004;exitDx=0;exitDy=0;exitPerimeter=0;entryX=0;entryY=0.25;entryDx=0;entryDy=0;" edge="1" parent="iy4ZRNuojDZgYijQHU6E-132" source="iy4ZRNuojDZgYijQHU6E-86" target="iy4ZRNuojDZgYijQHU6E-88">
          <mxGeometry width="50" height="50" relative="1" as="geometry">
            <mxPoint x="445" y="410" as="sourcePoint" />
            <mxPoint x="495" y="360" as="targetPoint" />
            <Array as="points">
              <mxPoint x="235" y="510" />
            </Array>
          </mxGeometry>
        </mxCell>
        <mxCell id="iy4ZRNuojDZgYijQHU6E-118" value="" style="endArrow=classic;html=1;rounded=0;exitX=0.749;exitY=0.959;exitDx=0;exitDy=0;exitPerimeter=0;entryX=1;entryY=0.25;entryDx=0;entryDy=0;" edge="1" parent="iy4ZRNuojDZgYijQHU6E-132" source="iy4ZRNuojDZgYijQHU6E-112" target="iy4ZRNuojDZgYijQHU6E-88">
          <mxGeometry width="50" height="50" relative="1" as="geometry">
            <mxPoint x="445" y="380" as="sourcePoint" />
            <mxPoint x="495" y="330" as="targetPoint" />
            <Array as="points">
              <mxPoint x="505" y="510" />
            </Array>
          </mxGeometry>
        </mxCell>
        <mxCell id="iy4ZRNuojDZgYijQHU6E-119" value="APISIX gateway" style="rounded=0;whiteSpace=wrap;html=1;fillColor=#ffe6cc;strokeColor=#d79b00;" vertex="1" parent="iy4ZRNuojDZgYijQHU6E-132">
          <mxGeometry x="305" y="150" width="120" height="60" as="geometry" />
        </mxCell>
        <mxCell id="iy4ZRNuojDZgYijQHU6E-120" value="" style="endArrow=classic;html=1;rounded=0;exitX=0.333;exitY=0.994;exitDx=0;exitDy=0;entryX=1;entryY=0.5;entryDx=0;entryDy=0;exitPerimeter=0;" edge="1" parent="iy4ZRNuojDZgYijQHU6E-132" source="iy4ZRNuojDZgYijQHU6E-119" target="iy4ZRNuojDZgYijQHU6E-86">
          <mxGeometry width="50" height="50" relative="1" as="geometry">
            <mxPoint x="95" y="380" as="sourcePoint" />
            <mxPoint x="145" y="330" as="targetPoint" />
            <Array as="points">
              <mxPoint x="345" y="340" />
            </Array>
          </mxGeometry>
        </mxCell>
        <mxCell id="iy4ZRNuojDZgYijQHU6E-121" value="" style="endArrow=classic;html=1;rounded=0;exitX=0.662;exitY=0.986;exitDx=0;exitDy=0;entryX=0;entryY=0.5;entryDx=0;entryDy=0;exitPerimeter=0;" edge="1" parent="iy4ZRNuojDZgYijQHU6E-132" source="iy4ZRNuojDZgYijQHU6E-119" target="iy4ZRNuojDZgYijQHU6E-112">
          <mxGeometry width="50" height="50" relative="1" as="geometry">
            <mxPoint x="245" y="300" as="sourcePoint" />
            <mxPoint x="295" y="250" as="targetPoint" />
            <Array as="points">
              <mxPoint x="385" y="340" />
            </Array>
          </mxGeometry>
        </mxCell>
        <mxCell id="iy4ZRNuojDZgYijQHU6E-122" value="user" style="shape=umlActor;verticalLabelPosition=bottom;verticalAlign=top;html=1;outlineConnect=0;" vertex="1" parent="iy4ZRNuojDZgYijQHU6E-132">
          <mxGeometry x="350" y="20" width="30" height="60" as="geometry" />
        </mxCell>
        <mxCell id="iy4ZRNuojDZgYijQHU6E-125" value="" style="endArrow=classic;html=1;rounded=0;entryX=0.5;entryY=0;entryDx=0;entryDy=0;" edge="1" parent="iy4ZRNuojDZgYijQHU6E-132" source="iy4ZRNuojDZgYijQHU6E-122" target="iy4ZRNuojDZgYijQHU6E-119">
          <mxGeometry width="50" height="50" relative="1" as="geometry">
            <mxPoint x="245" y="270" as="sourcePoint" />
            <mxPoint x="295" y="220" as="targetPoint" />
          </mxGeometry>
        </mxCell>
        <mxCell id="iy4ZRNuojDZgYijQHU6E-127" value="consul" style="rounded=1;whiteSpace=wrap;html=1;fillColor=#ffe6cc;strokeColor=#d79b00;" vertex="1" parent="iy4ZRNuojDZgYijQHU6E-132">
          <mxGeometry x="565" y="150" width="120" height="60" as="geometry" />
        </mxCell>
        <mxCell id="iy4ZRNuojDZgYijQHU6E-128" value="consul_kv" style="rounded=0;whiteSpace=wrap;html=1;fillColor=#ffe6cc;strokeColor=#d79b00;" vertex="1" parent="iy4ZRNuojDZgYijQHU6E-132">
          <mxGeometry x="415" y="160" width="60" height="40" as="geometry" />
        </mxCell>
        <mxCell id="iy4ZRNuojDZgYijQHU6E-129" value="" style="endArrow=classic;html=1;rounded=0;exitX=1;exitY=0.5;exitDx=0;exitDy=0;entryX=0;entryY=0.5;entryDx=0;entryDy=0;" edge="1" parent="iy4ZRNuojDZgYijQHU6E-132" source="iy4ZRNuojDZgYijQHU6E-128" target="iy4ZRNuojDZgYijQHU6E-127">
          <mxGeometry width="50" height="50" relative="1" as="geometry">
            <mxPoint x="385" y="350" as="sourcePoint" />
            <mxPoint x="435" y="300" as="targetPoint" />
          </mxGeometry>
        </mxCell>
        <mxCell id="iy4ZRNuojDZgYijQHU6E-130" value="" style="endArrow=classic;html=1;rounded=0;entryX=0.5;entryY=1;entryDx=0;entryDy=0;dashed=1;" edge="1" parent="iy4ZRNuojDZgYijQHU6E-132" target="iy4ZRNuojDZgYijQHU6E-127">
          <mxGeometry width="50" height="50" relative="1" as="geometry">
            <mxPoint x="255" y="310" as="sourcePoint" />
            <mxPoint x="305" y="260" as="targetPoint" />
            <Array as="points">
              <mxPoint x="255" y="280" />
              <mxPoint x="625" y="280" />
            </Array>
          </mxGeometry>
        </mxCell>
        <mxCell id="iy4ZRNuojDZgYijQHU6E-131" value="" style="endArrow=classic;html=1;rounded=0;exitX=0.5;exitY=0;exitDx=0;exitDy=0;entryX=0.75;entryY=1;entryDx=0;entryDy=0;dashed=1;" edge="1" parent="iy4ZRNuojDZgYijQHU6E-132" source="iy4ZRNuojDZgYijQHU6E-112" target="iy4ZRNuojDZgYijQHU6E-127">
          <mxGeometry width="50" height="50" relative="1" as="geometry">
            <mxPoint x="385" y="350" as="sourcePoint" />
            <mxPoint x="435" y="300" as="targetPoint" />
            <Array as="points">
              <mxPoint x="475" y="290" />
              <mxPoint x="655" y="290" />
            </Array>
          </mxGeometry>
        </mxCell>
        <mxCell id="iy4ZRNuojDZgYijQHU6E-182" value="Задание 5" style="text;html=1;align=center;verticalAlign=middle;resizable=0;points=[];autosize=1;strokeColor=none;fillColor=none;" vertex="1" parent="iy4ZRNuojDZgYijQHU6E-184">
          <mxGeometry x="357.5" width="80" height="30" as="geometry" />
        </mxCell>
      </root>
    </mxGraphModel>
  </diagram>
</mxfile>
